<?xml version="1.0" standalone="no"?>
<!DOCTYPE svg PUBLIC "-//W3C//DTD SVG 20010904//EN"
 "http://www.w3.org/TR/2001/REC-SVG-20010904/DTD/svg10.dtd">
<svg version="1.0" xmlns="http://www.w3.org/2000/svg"
 width="231.000000pt" height="140.000000pt" viewBox="0 0 231.000000 140.000000"
 preserveAspectRatio="xMidYMid meet">

<g transform="translate(0.000000,140.000000) scale(0.100000,-0.100000)"
fill="#000000" stroke="none">
<path d="M1135 1384 c-49 -7 -108 -13 -130 -13 l-40 -1 -18 -63 c-10 -34 -55
-185 -99 -334 -45 -150 -80 -274 -77 -277 4 -4 126 11 145 18 6 2 19 34 28 70
l18 66 44 0 c50 0 48 3 35 -102 -4 -32 -3 -58 2 -58 4 0 39 5 77 11 l68 12 6
91 c3 50 11 195 16 321 6 127 13 240 15 253 3 12 4 21 3 21 -2 -1 -43 -8 -93
-15z m-50 -151 c-3 -21 -10 -92 -15 -157 -6 -66 -12 -121 -14 -123 -1 -1 -17
-6 -34 -9 -24 -5 -32 -3 -32 7 0 8 16 83 37 167 24 98 42 152 50 152 9 0 12
-11 8 -37z"/>
<path d="M1895 1389 c-22 -4 -79 -10 -127 -14 l-88 -8 -10 -36 c-5 -20 -50
-171 -99 -336 -50 -164 -89 -300 -88 -302 3 -3 151 18 155 22 2 1 11 31 21 66
l18 64 47 3 c44 3 46 2 42 -20 -3 -13 -7 -49 -11 -82 l-5 -58 32 5 c18 3 53 9
79 12 l45 7 17 341 c9 187 16 341 14 342 -1 1 -20 -2 -42 -6z m-95 -136 c0
-10 -5 -82 -12 -160 l-12 -143 -33 -6 c-19 -4 -36 -5 -38 -2 -7 7 77 328 86
328 5 0 9 -8 9 -17z"/>
<path d="M560 1378 l-66 -10 -18 -106 c-9 -59 -37 -211 -62 -339 -24 -128 -44
-234 -44 -237 0 -12 88 -5 141 10 183 53 340 278 339 484 -2 165 -94 229 -290
198z m131 -149 c19 -19 21 -29 16 -78 -7 -64 -32 -142 -73 -225 -29 -60 -88
-135 -98 -125 -5 4 15 108 76 397 9 45 14 52 34 52 13 0 34 -10 45 -21z"/>
<path d="M1403 1373 l-133 -4 0 -59 0 -60 39 0 c22 0 42 -3 44 -7 5 -9 -21
-165 -64 -386 -17 -87 -28 -161 -25 -164 9 -9 150 17 157 29 4 5 9 36 13 67 9
76 66 418 72 435 3 8 25 17 48 20 42 7 44 8 50 49 4 23 9 52 13 65 5 20 2 22
-38 20 -24 -1 -104 -4 -176 -5z"/>
</g>
</svg>
